<svg width="500" height="500" viewBox="0 0 500 500" fill="none" xmlns="http://www.w3.org/2000/svg">
<path d="M164.523 247.358H336.101V189.078H164.523V247.358Z" fill="#171E28"/>
<path fill-rule="evenodd" clip-rule="evenodd" d="M84.8574 189C80.4391 189 76.8419 192.592 77.0054 197.008C80.7931 299.333 156.841 381 250.099 381C343.358 381 419.405 299.333 423.193 197.008C423.357 192.592 419.759 189 415.341 189H84.8574Z" fill="#22272E"/>
<path fill-rule="evenodd" clip-rule="evenodd" d="M84.9994 189C80.5811 189 76.9735 192.588 77.2447 196.998C82.0764 275.57 157.682 338 250.241 338C342.801 338 418.406 275.57 423.238 196.998C423.509 192.588 419.901 189 415.483 189H84.9994Z" fill="#272C34"/>
<path fill-rule="evenodd" clip-rule="evenodd" d="M84.9994 189C80.5812 189 76.9461 192.601 77.522 196.982C84.4372 249.584 159.125 291 250.241 291C341.358 291 416.045 249.584 422.961 196.982C423.536 192.601 419.901 189 415.483 189H84.9994Z" fill="#2C323B"/>
<path fill-rule="evenodd" clip-rule="evenodd" d="M332.728 189C321.886 148.47 288.97 119 250.048 119C211.126 119 178.211 148.47 167.368 189H84.9994C80.5812 189 76.9094 192.706 78.6519 196.766C90.3484 224.018 162.715 245 250.241 245C337.768 245 410.134 224.018 421.831 196.766C423.573 192.706 419.901 189 415.483 189H332.728Z" fill="#313741"/>
</svg>
